<svg width="233" height="52" viewBox="0 0 233 52" fill="none" xmlns="http://www.w3.org/2000/svg">
<g filter="url(#filter0_i_3_8)">
<path d="M18.2306 17.28C17.0466 17.28 16.0866 16.912 15.3506 16.176C14.6146 15.408 14.2466 14.432 14.2466 13.248C14.2466 12.064 14.6146 11.12 15.3506 10.416C16.0866 9.68 17.0466 9.312 18.2306 9.312C19.4146 9.312 20.3586 9.68 21.0626 10.416C21.7986 11.12 22.1666 12.064 22.1666 13.248C22.1666 14.464 21.7986 15.44 21.0626 16.176C20.3586 16.912 19.4146 17.28 18.2306 17.28ZM26.8706 17.28C25.6866 17.28 24.7266 16.912 23.9906 16.176C23.2546 15.408 22.8866 14.432 22.8866 13.248C22.8866 12.064 23.2546 11.12 23.9906 10.416C24.7266 9.68 25.6866 9.312 26.8706 9.312C28.0546 9.312 28.9986 9.68 29.7026 10.416C30.4386 11.12 30.8066 12.064 30.8066 13.248C30.8066 14.464 30.4386 15.44 29.7026 16.176C28.9986 16.912 28.0546 17.28 26.8706 17.28ZM31.7186 38.448C31.7186 42.512 30.2146 45.68 27.2066 47.952C24.4226 50.064 20.6146 51.12 15.7826 51.12C10.1826 51.12 5.99056 49.536 3.20656 46.368C1.12656 44 0.0865625 41.12 0.0865625 37.728C0.0865625 35.36 0.614563 33.264 1.67056 31.44L9.15856 29.856C8.07056 31.936 7.52656 34.096 7.52656 36.336C7.52656 41.072 10.2786 43.44 15.7826 43.44C20.0066 43.44 22.5506 42.464 23.4146 40.512C23.1266 40.544 22.6946 40.56 22.1186 40.56C19.0466 40.56 16.5826 39.424 14.7266 37.152C13.1906 35.296 12.4226 33.104 12.4226 30.576C12.4226 26.992 13.4306 24.144 15.4466 22.032C17.2386 20.144 19.5906 19.2 22.5026 19.2C25.4786 19.2 27.8146 20.16 29.5106 22.08C30.9826 23.712 31.7186 25.84 31.7186 28.464V38.448ZM23.7986 28.176C23.7986 27.152 23.3666 26.64 22.5026 26.64C20.9666 26.64 20.1986 27.856 20.1986 30.288C20.1986 32.688 20.9986 33.888 22.5986 33.888C23.1106 33.888 23.5106 33.792 23.7986 33.6V28.176ZM53.2237 38.544C53.2237 41.296 52.6477 43.712 51.4957 45.792C50.3757 47.872 48.8077 49.392 46.7917 50.352C45.3517 51.024 43.8157 51.36 42.1837 51.36C40.0077 51.36 37.8797 50.784 35.7997 49.632V42.768C37.4957 43.728 39.1277 44.208 40.6957 44.208C41.3357 44.208 41.9277 44.128 42.4717 43.968C44.3597 43.36 45.3037 41.744 45.3037 39.12V24.384L53.2237 20.16V38.544ZM71.2721 16.32C70.0881 16.32 69.1281 15.952 68.3921 15.216C67.6561 14.448 67.2881 13.472 67.2881 12.288C67.2881 11.104 67.6561 10.16 68.3921 9.456C69.1281 8.72 70.0881 8.352 71.2721 8.352C72.4561 8.352 73.4001 8.72 74.1041 9.456C74.8401 10.16 75.2081 11.104 75.2081 12.288C75.2081 13.504 74.8401 14.48 74.1041 15.216C73.4001 15.952 72.4561 16.32 71.2721 16.32ZM75.2081 38.544C75.2081 41.296 74.6321 43.712 73.4801 45.792C72.3601 47.872 70.7921 49.392 68.7761 50.352C67.3361 51.024 65.8001 51.36 64.1681 51.36C61.9921 51.36 59.8641 50.784 57.7841 49.632V42.768C59.4801 43.728 61.1121 44.208 62.6801 44.208C63.3201 44.208 63.9121 44.128 64.4561 43.968C66.3441 43.36 67.2881 41.744 67.2881 39.12V24.384L75.2081 20.16V38.544ZM81.8118 10.224L83.6838 6.72H85.2678C84.8838 6.048 84.6918 5.344 84.6918 4.608C84.6918 3.424 85.1238 2.432 85.9878 1.632C86.7558 0.895999 87.7158 0.527999 88.8678 0.527999C90.0198 0.527999 91.0598 0.959999 91.9878 1.824V5.232C91.0918 4.432 90.2278 4.032 89.3958 4.032C88.8838 4.032 88.4998 4.16 88.2438 4.416C88.0198 4.64 87.9078 4.928 87.9078 5.28C87.9078 5.728 88.1158 6.208 88.5318 6.72H93.6198L91.7478 10.224H81.8118ZM83.8278 42V17.184L91.7478 12.96V42H83.8278ZM144.243 17.28C143.059 17.28 142.099 16.912 141.363 16.176C140.627 15.408 140.259 14.432 140.259 13.248C140.259 12.064 140.627 11.12 141.363 10.416C142.099 9.68 143.059 9.312 144.243 9.312C145.427 9.312 146.371 9.68 147.075 10.416C147.811 11.12 148.179 12.064 148.179 13.248C148.179 14.464 147.811 15.44 147.075 16.176C146.371 16.912 145.427 17.28 144.243 17.28ZM122.883 42C119.587 42 116.979 40.864 115.059 38.592C113.363 36.64 112.515 34.16 112.515 31.152V27.312L120.435 23.088V30.768C120.435 32.144 120.643 33.088 121.059 33.6C121.507 34.08 122.339 34.32 123.555 34.32H134.211C133.763 33.136 133.539 31.888 133.539 30.576C133.539 26.992 134.547 24.144 136.563 22.032C138.355 20.144 140.707 19.2 143.619 19.2C146.595 19.2 148.931 20.16 150.627 22.08C152.099 23.712 152.835 25.84 152.835 28.464V32.592C152.835 35.408 152.003 37.68 150.339 39.408C148.675 41.136 146.403 42 143.523 42H122.883ZM144.915 28.176C144.915 27.152 144.483 26.64 143.619 26.64C142.083 26.64 141.315 27.856 141.315 30.288C141.315 32.976 142.083 34.32 143.619 34.32C144.483 34.32 144.915 33.808 144.915 32.784V28.176ZM170.824 40.512C170.472 40.544 169.944 40.56 169.24 40.56C166.168 40.56 163.704 39.424 161.848 37.152C160.312 35.296 159.544 33.104 159.544 30.576C159.544 26.992 160.552 24.144 162.568 22.032C164.36 20.144 166.712 19.2 169.624 19.2C172.6 19.2 174.936 20.16 176.632 22.08C178.104 23.712 178.84 25.84 178.84 28.464V38.544C178.84 42.96 177.592 46.288 175.096 48.528C173.176 50.256 170.744 51.12 167.8 51.12C165.688 51.12 163.56 50.464 161.416 49.152V42.288C163.496 43.504 165.4 44.112 167.128 44.112C169.24 44.112 170.472 42.912 170.824 40.512ZM170.92 28.176C170.92 27.152 170.488 26.64 169.624 26.64C168.088 26.64 167.32 27.856 167.32 30.288C167.32 32.688 168.12 33.888 169.72 33.888C170.232 33.888 170.632 33.792 170.92 33.6V28.176ZM202.476 34.32H206.94V42H201.756C201.34 42 200.78 41.968 200.076 41.904C199.276 45.936 197.228 48.752 193.932 50.352C192.492 51.024 190.956 51.36 189.324 51.36C187.148 51.36 185.02 50.784 182.94 49.632V42.768C184.636 43.728 186.268 44.208 187.836 44.208C188.476 44.208 189.068 44.128 189.612 43.968C191.5 43.36 192.444 41.744 192.444 39.12V24.336L200.364 20.16V32.208C200.364 33.04 200.508 33.6 200.796 33.888C201.084 34.176 201.644 34.32 202.476 34.32ZM220.221 16.32C219.037 16.32 218.077 15.952 217.341 15.216C216.605 14.448 216.237 13.472 216.237 12.288C216.237 11.104 216.605 10.16 217.341 9.456C218.077 8.72 219.037 8.352 220.221 8.352C221.405 8.352 222.349 8.72 223.053 9.456C223.789 10.16 224.157 11.104 224.157 12.288C224.157 13.504 223.789 14.48 223.053 15.216C222.349 15.952 221.405 16.32 220.221 16.32ZM205.965 42V34.32H212.685C217.453 34.32 221.309 33.088 224.253 30.624C222.429 27.904 220.317 26.544 217.917 26.544C215.485 26.544 212.605 27.936 209.277 30.72V23.952C212.029 20.784 215.213 19.2 218.829 19.2H218.925C221.517 19.2 224.029 20.144 226.461 22.032C228.893 23.888 231.037 26.512 232.893 29.904V32.592C230.557 35.6 227.629 37.92 224.109 39.552C220.589 41.184 216.765 42 212.637 42H205.965Z" fill="#63DAF2"/>
</g>
<defs>
<filter id="filter0_i_3_8" x="0.0865631" y="0.527954" width="232.807" height="54.832" filterUnits="userSpaceOnUse" color-interpolation-filters="sRGB">
<feFlood flood-opacity="0" result="BackgroundImageFix"/>
<feBlend mode="normal" in="SourceGraphic" in2="BackgroundImageFix" result="shape"/>
<feColorMatrix in="SourceAlpha" type="matrix" values="0 0 0 0 0 0 0 0 0 0 0 0 0 0 0 0 0 0 127 0" result="hardAlpha"/>
<feOffset dy="4"/>
<feGaussianBlur stdDeviation="2"/>
<feComposite in2="hardAlpha" operator="arithmetic" k2="-1" k3="1"/>
<feColorMatrix type="matrix" values="0 0 0 0 0 0 0 0 0 0 0 0 0 0 0 0 0 0 0.25 0"/>
<feBlend mode="normal" in2="shape" result="effect1_innerShadow_3_8"/>
</filter>
</defs>
</svg>
