<svg width="258" height="47" viewBox="0 0 258 47" fill="none" xmlns="http://www.w3.org/2000/svg">
<g filter="url(#filter0_i_3_7)">
<path d="M0.664375 40.504V32.872C1.81638 32.168 3.03238 31.608 4.31238 31.192C3.64038 29.528 3.30438 27.816 3.30438 26.056C3.30438 22.152 4.53638 19.224 7.00038 17.272C8.79238 15.864 10.9204 15.16 13.3844 15.16C16.2644 15.16 18.7604 16.264 20.8724 18.472V25.624C18.2484 23.48 16.0404 22.408 14.2484 22.408C14.2164 22.408 14.1524 22.408 14.0564 22.408C12.1364 22.504 11.1764 23.656 11.1764 25.864C11.1764 27.464 11.6564 28.824 12.6164 29.944L14.6804 29.8C17.9764 29.448 20.9204 28.424 23.5124 26.728L23.4644 33.88C20.7444 35.96 16.9844 37 12.1844 37C7.70438 37 3.86438 38.168 0.664375 40.504ZM30.2106 37V10.264L38.1306 6.04V37H30.2106ZM62.2341 29.32H66.6981V37H61.5141C61.0981 37 60.5381 36.968 59.8341 36.904C59.0341 40.936 56.9861 43.752 53.6901 45.352C52.2501 46.024 50.7141 46.36 49.0821 46.36C46.9061 46.36 44.7781 45.784 42.6981 44.632V37.768C44.3941 38.728 46.0261 39.208 47.5941 39.208C48.2341 39.208 48.8261 39.128 49.3701 38.968C51.2581 38.36 52.2021 36.744 52.2021 34.12V19.336L60.1221 15.16V27.208C60.1221 28.04 60.2661 28.6 60.5541 28.888C60.8421 29.176 61.4021 29.32 62.2341 29.32ZM80.2191 12.28C79.0351 12.28 78.0751 11.912 77.3391 11.176C76.6031 10.408 76.2351 9.432 76.2351 8.248C76.2351 7.064 76.6031 6.12 77.3391 5.416C78.0751 4.68 79.0351 4.312 80.2191 4.312C81.4031 4.312 82.3471 4.68 83.0511 5.416C83.7871 6.12 84.1551 7.064 84.1551 8.248C84.1551 9.464 83.7871 10.44 83.0511 11.176C82.3471 11.912 81.4031 12.28 80.2191 12.28ZM89.2431 29.32H94.9071V37H84.7311C82.9711 37 81.4991 36.872 80.3151 36.616C79.1311 36.872 77.6591 37 75.8991 37H65.7231V29.32H71.3871C70.7151 27.816 70.3791 26.344 70.3791 24.904C70.3791 21.64 71.3551 19 73.3071 16.984C75.1311 15.128 77.4671 14.2 80.3151 14.2C83.5791 14.2 86.1391 15.384 87.9951 17.752C89.4991 19.704 90.2511 22.088 90.2511 24.904C90.2511 26.344 89.9151 27.816 89.2431 29.32ZM80.3151 28.552C81.8191 27.56 82.5711 26.168 82.5711 24.376C82.5711 22.552 81.8191 21.64 80.3151 21.64C78.8111 21.64 78.0591 22.536 78.0591 24.328C78.0591 26.184 78.8111 27.592 80.3151 28.552ZM110.358 29.32C112.022 24.904 114.326 21.336 117.27 18.616C120.502 15.672 124.15 14.2 128.214 14.2C132.15 14.2 135.286 15.56 137.622 18.28C139.638 20.584 140.646 23.4 140.646 26.728V27.592C140.646 30.664 139.686 33.048 137.766 34.744C136.102 36.248 133.958 37 131.334 37H109.83C107.782 37 106.006 36.52 104.502 35.56C102.934 36.52 101.142 37 99.1259 37H93.9419V29.32H98.4059C99.2379 29.32 99.7979 29.176 100.086 28.888C100.374 28.6 100.518 28.04 100.518 27.208V21.256L108.438 17.08V27.208C108.438 28.008 108.566 28.552 108.822 28.84C109.078 29.128 109.59 29.288 110.358 29.32ZM132.726 27.208V26.728C132.726 25.192 132.31 23.96 131.478 23.032C130.678 22.104 129.606 21.64 128.262 21.64C126.342 21.64 124.486 22.328 122.694 23.704C120.934 25.08 119.478 26.952 118.326 29.32H131.094C131.862 29.32 132.326 29.224 132.486 29.032C132.646 28.808 132.726 28.2 132.726 27.208ZM172.344 29.32H176.808V37H171.624C171.208 37 170.648 36.968 169.944 36.904C169.144 40.936 167.096 43.752 163.8 45.352C162.36 46.024 160.824 46.36 159.192 46.36C157.016 46.36 154.887 45.784 152.807 44.632V37.768C154.503 38.728 156.136 39.208 157.704 39.208C158.344 39.208 158.936 39.128 159.48 38.968C161.368 38.36 162.312 36.744 162.312 34.12V19.336L170.232 15.16V27.208C170.232 28.04 170.376 28.6 170.664 28.888C170.952 29.176 171.512 29.32 172.344 29.32ZM179.145 9.88L181.017 6.376H182.601C182.217 5.704 182.025 5 182.025 4.264C182.025 3.08 182.457 2.088 183.321 1.288C184.089 0.551999 185.049 0.183999 186.201 0.183999C187.353 0.183999 188.393 0.615999 189.321 1.48V4.888C188.425 4.088 187.561 3.688 186.729 3.688C186.217 3.688 185.833 3.816 185.577 4.072C185.353 4.296 185.241 4.584 185.241 4.936C185.241 5.384 185.449 5.864 185.865 6.376H190.953L189.081 9.88H179.145ZM175.832 37V29.32H180.297C181.129 29.32 181.689 29.176 181.977 28.888C182.265 28.6 182.409 28.04 182.409 27.208V19.336L190.329 15.16V27.592C190.329 30.632 189.369 33.016 187.449 34.744C185.785 36.248 183.641 37 181.017 37H175.832ZM198.961 37V10.264L206.881 6.04V37H198.961ZM225.348 35.512C224.996 35.544 224.468 35.56 223.764 35.56C220.692 35.56 218.228 34.424 216.372 32.152C214.836 30.296 214.068 28.104 214.068 25.576C214.068 21.992 215.076 19.144 217.092 17.032C218.884 15.144 221.236 14.2 224.148 14.2C227.124 14.2 229.46 15.16 231.156 17.08C232.628 18.712 233.364 20.84 233.364 23.464V33.544C233.364 37.96 232.116 41.288 229.62 43.528C227.7 45.256 225.268 46.12 222.324 46.12C220.212 46.12 218.084 45.464 215.94 44.152V37.288C218.02 38.504 219.924 39.112 221.652 39.112C223.764 39.112 224.996 37.912 225.348 35.512ZM225.444 23.176C225.444 22.152 225.012 21.64 224.148 21.64C222.612 21.64 221.844 22.856 221.844 25.288C221.844 27.688 222.644 28.888 224.244 28.888C224.756 28.888 225.156 28.792 225.444 28.6V23.176ZM237.683 37L241.667 29.32H248.339C249.299 29.32 249.779 28.84 249.779 27.88C249.779 25.128 248.323 22.92 245.411 21.256L249.299 14.584C254.899 17.848 257.699 22.312 257.699 27.976C257.699 31.272 256.835 33.688 255.107 35.224C253.795 36.408 252.035 37 249.827 37H237.683Z" fill="#FBD012"/>
</g>
<defs>
<filter id="filter0_i_3_7" x="0.664368" y="0.18396" width="257.035" height="50.176" filterUnits="userSpaceOnUse" color-interpolation-filters="sRGB">
<feFlood flood-opacity="0" result="BackgroundImageFix"/>
<feBlend mode="normal" in="SourceGraphic" in2="BackgroundImageFix" result="shape"/>
<feColorMatrix in="SourceAlpha" type="matrix" values="0 0 0 0 0 0 0 0 0 0 0 0 0 0 0 0 0 0 127 0" result="hardAlpha"/>
<feOffset dy="4"/>
<feGaussianBlur stdDeviation="2"/>
<feComposite in2="hardAlpha" operator="arithmetic" k2="-1" k3="1"/>
<feColorMatrix type="matrix" values="0 0 0 0 0 0 0 0 0 0 0 0 0 0 0 0 0 0 0.25 0"/>
<feBlend mode="normal" in2="shape" result="effect1_innerShadow_3_7"/>
</filter>
</defs>
</svg>
