<svg width="238" height="49" viewBox="0 0 238 49" fill="none" xmlns="http://www.w3.org/2000/svg">
<g filter="url(#filter0_i_3_10)">
<path d="M5.9265 9.88C4.7425 9.88 3.7825 9.512 3.0465 8.776C2.3105 8.008 1.9425 7.032 1.9425 5.848C1.9425 4.664 2.3105 3.72 3.0465 3.016C3.7825 2.28 4.7425 1.912 5.9265 1.912C7.1105 1.912 8.0545 2.28 8.7585 3.016C9.4945 3.72 9.8625 4.664 9.8625 5.848C9.8625 7.064 9.4945 8.04 8.7585 8.776C8.0545 9.512 7.1105 9.88 5.9265 9.88ZM14.5665 9.88C13.3825 9.88 12.4225 9.512 11.6865 8.776C10.9505 8.008 10.5825 7.032 10.5825 5.848C10.5825 4.664 10.9505 3.72 11.6865 3.016C12.4225 2.28 13.3825 1.912 14.5665 1.912C15.7505 1.912 16.6945 2.28 17.3985 3.016C18.1345 3.72 18.5025 4.664 18.5025 5.848C18.5025 7.064 18.1345 8.04 17.3985 8.776C16.6945 9.512 15.7505 9.88 14.5665 9.88ZM21.9105 29.32H26.3745V37H21.1905C18.5025 37 16.3105 36.2 14.6145 34.6C13.3985 35.272 11.9265 35.608 10.1985 35.608C7.1265 35.608 4.6625 34.472 2.8065 32.2C1.2705 30.344 0.5025 28.152 0.5025 25.624C0.5025 22.392 1.6065 19.736 3.8145 17.656C5.6385 15.992 7.6865 15.16 9.9585 15.16C10.6945 15.16 11.3345 15.224 11.8785 15.352V14.68L19.7985 10.504V27.208C19.7985 28.04 19.9425 28.6 20.2305 28.888C20.5185 29.176 21.0785 29.32 21.9105 29.32ZM11.8785 22.888C11.4945 22.728 11.0625 22.648 10.5825 22.648C9.8785 22.648 9.3185 22.936 8.9025 23.512C8.4865 24.088 8.2785 24.856 8.2785 25.816C8.2785 27.896 9.0785 28.936 10.6785 28.936C11.1265 28.936 11.5425 28.84 11.9265 28.648C11.8945 28.424 11.8785 28.072 11.8785 27.592V22.888ZM42.003 29.32H46.467V37H41.283C39.235 37 37.459 36.52 35.955 35.56C34.387 36.52 32.595 37 30.579 37H25.395V29.32H29.859C30.691 29.32 31.251 29.176 31.539 28.888C31.827 28.6 31.971 28.04 31.971 27.208V19.336L39.891 15.16V27.208C39.891 28.04 40.035 28.6 40.323 28.888C40.611 29.176 41.171 29.32 42.003 29.32ZM28.515 40.888C29.699 40.888 30.643 41.24 31.347 41.944C32.083 42.68 32.451 43.64 32.451 44.824C32.451 46.04 32.083 47.016 31.347 47.752C30.643 48.488 29.699 48.856 28.515 48.856C27.331 48.856 26.371 48.472 25.635 47.704C24.899 46.968 24.531 46.008 24.531 44.824C24.531 43.64 24.899 42.68 25.635 41.944C26.371 41.24 27.331 40.888 28.515 40.888ZM37.155 40.888C38.339 40.888 39.283 41.24 39.987 41.944C40.723 42.68 41.091 43.64 41.091 44.824C41.091 46.04 40.723 47.016 39.987 47.752C39.283 48.488 38.339 48.856 37.155 48.856C35.971 48.856 35.011 48.472 34.275 47.704C33.539 46.968 33.171 46.008 33.171 44.824C33.171 43.64 33.539 42.68 34.275 41.944C35.011 41.24 35.971 40.888 37.155 40.888ZM61.2004 29.32H65.6644V37H60.4804C58.2084 37 56.2724 36.424 54.6724 35.272C52.9124 36.424 50.8164 37 48.3844 37H45.5044V29.32H48.0484C49.2644 29.32 50.0804 29.096 50.4964 28.648C50.9444 28.168 51.1684 27.288 51.1684 26.008V10.264L59.0884 6.04V27.208C59.0884 28.04 59.2324 28.6 59.5204 28.888C59.8084 29.176 60.3684 29.32 61.2004 29.32ZM95.0591 29.32H99.0911V37H95.0111C92.5791 37 90.6111 36.744 89.1071 36.232C87.6031 35.688 86.2111 34.776 84.9311 33.496C80.8991 35.832 76.3871 37 71.3951 37H64.7231V29.32H71.4431C76.2111 29.32 80.0671 28.088 83.0111 25.624C81.1871 22.904 79.0751 21.544 76.6751 21.544C74.2431 21.544 71.3631 22.936 68.0351 25.72V18.952C70.7871 15.784 73.9711 14.2 77.5871 14.2H77.6831C80.2751 14.2 82.7871 15.144 85.2191 17.032C87.6511 18.888 89.7951 21.512 91.6511 24.904V27.592C91.4271 27.88 91.0591 28.312 90.5471 28.888C91.5071 29.176 93.0111 29.32 95.0591 29.32ZM110.193 15.112C112.081 15.464 113.761 16.136 115.233 17.128C118.817 19.496 120.609 22.888 120.609 27.304V27.784C120.609 30.792 119.649 33.128 117.729 34.792C116.065 36.264 113.937 37 111.345 37H98.145V29.32H110.577C111.377 29.32 111.921 29.192 112.209 28.936C112.529 28.68 112.689 28.216 112.689 27.544V27.4C112.689 25.64 111.857 24.328 110.193 23.464C109.169 22.92 107.937 22.648 106.497 22.648C104.929 22.648 103.217 22.984 101.361 23.656V16.024L110.337 6.04H118.257L110.193 15.112ZM152.265 29.32H156.729V37H151.545C151.129 37 150.569 36.968 149.865 36.904C149.065 40.936 147.017 43.752 143.721 45.352C142.281 46.024 140.745 46.36 139.113 46.36C136.937 46.36 134.809 45.784 132.729 44.632V37.768C134.425 38.728 136.057 39.208 137.625 39.208C138.265 39.208 138.857 39.128 139.401 38.968C141.289 38.36 142.233 36.744 142.233 34.12V19.336L150.153 15.16V27.208C150.153 28.04 150.297 28.6 150.585 28.888C150.873 29.176 151.433 29.32 152.265 29.32ZM159.066 9.88L160.938 6.376H162.522C162.138 5.704 161.946 5 161.946 4.264C161.946 3.08 162.378 2.088 163.242 1.288C164.01 0.551999 164.97 0.183999 166.122 0.183999C167.274 0.183999 168.314 0.615999 169.242 1.48V4.888C168.346 4.088 167.482 3.688 166.65 3.688C166.138 3.688 165.754 3.816 165.498 4.072C165.274 4.296 165.162 4.584 165.162 4.936C165.162 5.384 165.37 5.864 165.786 6.376H170.874L169.002 9.88H159.066ZM155.754 37V29.32H160.218C161.05 29.32 161.61 29.176 161.898 28.888C162.186 28.6 162.33 28.04 162.33 27.208V19.336L170.25 15.16V27.592C170.25 30.632 169.29 33.016 167.37 34.744C165.706 36.248 163.562 37 160.938 37H155.754ZM178.883 37V10.264L186.803 6.04V37H178.883ZM205.269 35.512C204.917 35.544 204.389 35.56 203.685 35.56C200.613 35.56 198.149 34.424 196.293 32.152C194.757 30.296 193.989 28.104 193.989 25.576C193.989 21.992 194.997 19.144 197.013 17.032C198.805 15.144 201.157 14.2 204.069 14.2C207.045 14.2 209.381 15.16 211.077 17.08C212.549 18.712 213.285 20.84 213.285 23.464V33.544C213.285 37.96 212.037 41.288 209.541 43.528C207.621 45.256 205.189 46.12 202.245 46.12C200.133 46.12 198.005 45.464 195.861 44.152V37.288C197.941 38.504 199.845 39.112 201.573 39.112C203.685 39.112 204.917 37.912 205.269 35.512ZM205.365 23.176C205.365 22.152 204.933 21.64 204.069 21.64C202.533 21.64 201.765 22.856 201.765 25.288C201.765 27.688 202.565 28.888 204.165 28.888C204.677 28.888 205.077 28.792 205.365 28.6V23.176ZM217.605 37L221.589 29.32H228.261C229.221 29.32 229.701 28.84 229.701 27.88C229.701 25.128 228.245 22.92 225.333 21.256L229.221 14.584C234.821 17.848 237.621 22.312 237.621 27.976C237.621 31.272 236.757 33.688 235.029 35.224C233.717 36.408 231.957 37 229.749 37H217.605Z" fill="#000033"/>
</g>
<defs>
<filter id="filter0_i_3_10" x="0.502441" y="0.18396" width="237.119" height="52.672" filterUnits="userSpaceOnUse" color-interpolation-filters="sRGB">
<feFlood flood-opacity="0" result="BackgroundImageFix"/>
<feBlend mode="normal" in="SourceGraphic" in2="BackgroundImageFix" result="shape"/>
<feColorMatrix in="SourceAlpha" type="matrix" values="0 0 0 0 0 0 0 0 0 0 0 0 0 0 0 0 0 0 127 0" result="hardAlpha"/>
<feOffset dy="4"/>
<feGaussianBlur stdDeviation="2"/>
<feComposite in2="hardAlpha" operator="arithmetic" k2="-1" k3="1"/>
<feColorMatrix type="matrix" values="0 0 0 0 0 0 0 0 0 0 0 0 0 0 0 0 0 0 0.25 0"/>
<feBlend mode="normal" in2="shape" result="effect1_innerShadow_3_10"/>
</filter>
</defs>
</svg>
