<svg width="241" height="54" viewBox="0 0 241 54" fill="none" xmlns="http://www.w3.org/2000/svg">
<g filter="url(#filter0_i_3_9)">
<path d="M29.1298 21.712C26.6978 19.728 24.5058 18.736 22.5538 18.736C21.7858 18.736 21.1618 18.928 20.6818 19.312C20.2018 19.664 19.9618 20.128 19.9618 20.704C19.9618 21.632 20.2818 22.368 20.9218 22.912C21.5938 23.456 22.8898 24.048 24.8098 24.688C27.2738 25.488 28.9698 26.304 29.8978 27.136C31.2738 28.352 31.9618 30.048 31.9618 32.224C31.9618 35.84 30.3298 38.64 27.0658 40.624C24.2818 42.288 20.6978 43.12 16.3138 43.12C10.7138 43.12 6.52181 41.536 3.73781 38.368C1.65781 36 0.617813 33.12 0.617813 29.728C0.617813 27.36 1.14581 25.264 2.20181 23.44L9.68981 21.856C8.60181 23.936 8.05781 26.096 8.05781 28.336C8.05781 33.072 10.8098 35.44 16.3138 35.44C21.4978 35.44 24.0898 34.336 24.0898 32.128C24.0898 31.328 22.9058 30.512 20.5378 29.68C17.9138 28.752 16.0578 27.792 14.9698 26.8C13.3378 25.296 12.5218 23.248 12.5218 20.656C12.5218 17.616 13.5458 15.248 15.5938 13.552C17.1618 12.272 18.9698 11.632 21.0178 11.632C22.6178 11.632 24.1538 11.968 25.6258 12.64C27.1298 13.28 28.2978 14.128 29.1298 15.184V21.712ZM12.1858 53.92C11.0018 53.92 10.0418 53.536 9.30581 52.768C8.56981 52.032 8.20181 51.072 8.20181 49.888C8.20181 48.704 8.56981 47.744 9.30581 47.008C10.0418 46.304 11.0018 45.952 12.1858 45.952C13.3698 45.952 14.3138 46.304 15.0178 47.008C15.7538 47.744 16.1218 48.704 16.1218 49.888C16.1218 51.104 15.7538 52.08 15.0178 52.816C14.3138 53.552 13.3698 53.92 12.1858 53.92ZM20.8258 53.92C19.6418 53.92 18.6818 53.536 17.9458 52.768C17.2098 52.032 16.8418 51.072 16.8418 49.888C16.8418 48.704 17.2098 47.744 17.9458 47.008C18.6818 46.304 19.6418 45.952 20.8258 45.952C22.0098 45.952 22.9538 46.304 23.6578 47.008C24.3938 47.744 24.7618 48.704 24.7618 49.888C24.7618 51.104 24.3938 52.08 23.6578 52.816C22.9538 53.552 22.0098 53.92 20.8258 53.92ZM35.3316 34L39.3156 26.32H45.9876C46.9476 26.32 47.4276 25.84 47.4276 24.88C47.4276 22.128 45.9716 19.92 43.0596 18.256L46.9476 11.584C52.5476 14.848 55.3476 19.312 55.3476 24.976C55.3476 28.272 54.4836 30.688 52.7556 32.224C51.4436 33.408 49.6836 34 47.4756 34H35.3316ZM73.2081 30.544C73.2081 33.296 72.6321 35.712 71.4801 37.792C70.3601 39.872 68.7921 41.392 66.7761 42.352C65.3361 43.024 63.8001 43.36 62.1681 43.36C59.9921 43.36 57.8641 42.784 55.7841 41.632V34.768C57.4801 35.728 59.1121 36.208 60.6801 36.208C61.3201 36.208 61.9121 36.128 62.4561 35.968C64.3441 35.36 65.2881 33.744 65.2881 31.12V16.384L73.2081 12.16V30.544ZM91.6678 32.512C91.3158 32.544 90.7878 32.56 90.0838 32.56C87.0118 32.56 84.5478 31.424 82.6918 29.152C81.1558 27.296 80.3878 25.104 80.3878 22.576C80.3878 18.992 81.3958 16.144 83.4118 14.032C85.2038 12.144 87.5558 11.2 90.4678 11.2C93.4438 11.2 95.7798 12.16 97.4758 14.08C98.9478 15.712 99.6838 17.84 99.6838 20.464V30.544C99.6838 34.96 98.4358 38.288 95.9398 40.528C94.0198 42.256 91.5878 43.12 88.6438 43.12C86.5318 43.12 84.4038 42.464 82.2598 41.152V34.288C84.3398 35.504 86.2438 36.112 87.9718 36.112C90.0838 36.112 91.3158 34.912 91.6678 32.512ZM91.7638 20.176C91.7638 19.152 91.3318 18.64 90.4678 18.64C88.9318 18.64 88.1638 19.856 88.1638 22.288C88.1638 24.688 88.9638 25.888 90.5638 25.888C91.0758 25.888 91.4758 25.792 91.7638 25.6V20.176ZM151.712 9.28C150.528 9.28 149.568 8.912 148.832 8.176C148.096 7.408 147.728 6.432 147.728 5.248C147.728 4.064 148.096 3.12 148.832 2.416C149.568 1.68 150.528 1.312 151.712 1.312C152.896 1.312 153.84 1.68 154.544 2.416C155.28 3.12 155.648 4.064 155.648 5.248C155.648 6.464 155.28 7.44 154.544 8.176C153.84 8.912 152.896 9.28 151.712 9.28ZM130.352 34C127.056 34 124.448 32.864 122.528 30.592C120.832 28.64 119.984 26.16 119.984 23.152V19.312L127.904 15.088V22.768C127.904 24.144 128.112 25.088 128.528 25.6C128.976 26.08 129.808 26.32 131.024 26.32H141.68C141.232 25.136 141.008 23.888 141.008 22.576C141.008 18.992 142.016 16.144 144.032 14.032C145.824 12.144 148.176 11.2 151.088 11.2C154.064 11.2 156.4 12.16 158.096 14.08C159.568 15.712 160.304 17.84 160.304 20.464V24.592C160.304 27.408 159.472 29.68 157.808 31.408C156.144 33.136 153.872 34 150.992 34H130.352ZM152.384 20.176C152.384 19.152 151.952 18.64 151.088 18.64C149.552 18.64 148.784 19.856 148.784 22.288C148.784 24.976 149.552 26.32 151.088 26.32C151.952 26.32 152.384 25.808 152.384 24.784V20.176ZM178.293 32.512C177.941 32.544 177.413 32.56 176.709 32.56C173.637 32.56 171.173 31.424 169.317 29.152C167.781 27.296 167.013 25.104 167.013 22.576C167.013 18.992 168.021 16.144 170.037 14.032C171.829 12.144 174.181 11.2 177.093 11.2C180.069 11.2 182.405 12.16 184.101 14.08C185.573 15.712 186.309 17.84 186.309 20.464V30.544C186.309 34.96 185.061 38.288 182.565 40.528C180.645 42.256 178.213 43.12 175.269 43.12C173.157 43.12 171.029 42.464 168.885 41.152V34.288C170.965 35.504 172.869 36.112 174.597 36.112C176.709 36.112 177.941 34.912 178.293 32.512ZM178.389 20.176C178.389 19.152 177.957 18.64 177.093 18.64C175.557 18.64 174.789 19.856 174.789 22.288C174.789 24.688 175.589 25.888 177.189 25.888C177.701 25.888 178.101 25.792 178.389 25.6V20.176ZM209.945 26.32H214.409V34H209.225C208.809 34 208.249 33.968 207.545 33.904C206.745 37.936 204.697 40.752 201.401 42.352C199.961 43.024 198.425 43.36 196.793 43.36C194.617 43.36 192.489 42.784 190.409 41.632V34.768C192.105 35.728 193.737 36.208 195.305 36.208C195.945 36.208 196.537 36.128 197.081 35.968C198.969 35.36 199.913 33.744 199.913 31.12V16.336L207.833 12.16V24.208C207.833 25.04 207.977 25.6 208.265 25.888C208.553 26.176 209.113 26.32 209.945 26.32ZM227.69 8.32C226.506 8.32 225.546 7.952 224.81 7.216C224.074 6.448 223.706 5.472 223.706 4.288C223.706 3.104 224.074 2.16 224.81 1.456C225.546 0.719998 226.506 0.351998 227.69 0.351998C228.874 0.351998 229.818 0.719998 230.522 1.456C231.258 2.16 231.626 3.104 231.626 4.288C231.626 5.504 231.258 6.48 230.522 7.216C229.818 7.952 228.874 8.32 227.69 8.32ZM213.434 34V26.32H220.154C224.922 26.32 228.778 25.088 231.722 22.624C229.898 19.904 227.786 18.544 225.386 18.544C222.954 18.544 220.074 19.936 216.746 22.72V15.952C219.498 12.784 222.682 11.2 226.298 11.2H226.394C228.986 11.2 231.498 12.144 233.93 14.032C236.362 15.888 238.506 18.512 240.362 21.904V24.592C238.026 27.6 235.098 29.92 231.578 31.552C228.058 33.184 224.234 34 220.106 34H213.434Z" fill="#D25ABF"/>
</g>
<defs>
<filter id="filter0_i_3_9" x="0.617798" y="0.352051" width="239.744" height="57.568" filterUnits="userSpaceOnUse" color-interpolation-filters="sRGB">
<feFlood flood-opacity="0" result="BackgroundImageFix"/>
<feBlend mode="normal" in="SourceGraphic" in2="BackgroundImageFix" result="shape"/>
<feColorMatrix in="SourceAlpha" type="matrix" values="0 0 0 0 0 0 0 0 0 0 0 0 0 0 0 0 0 0 127 0" result="hardAlpha"/>
<feOffset dy="4"/>
<feGaussianBlur stdDeviation="2"/>
<feComposite in2="hardAlpha" operator="arithmetic" k2="-1" k3="1"/>
<feColorMatrix type="matrix" values="0 0 0 0 0 0 0 0 0 0 0 0 0 0 0 0 0 0 0.25 0"/>
<feBlend mode="normal" in2="shape" result="effect1_innerShadow_3_9"/>
</filter>
</defs>
</svg>
